<svg width="100" height="100" viewBox="0 0 100 100" fill="none" xmlns="http://www.w3.org/2000/svg">
<circle cx="50" cy="50" r="50" fill="#C6481B"/>
<path d="M39.2551 44.6599L27.376 56.5391L31.5449 60.708L43.424 48.8289L39.2551 44.6599Z" fill="#F1F0EA"/>
<path d="M41.3779 49.6582C43.007 49.6582 44.3277 48.3376 44.3277 46.7085C44.3277 45.0794 43.007 43.7588 41.3779 43.7588C39.7489 43.7588 38.4282 45.0794 38.4282 46.7085C38.4282 48.3376 39.7489 49.6582 41.3779 49.6582Z" fill="#F1F0EA"/>
<path d="M29.4629 61.5752C31.092 61.5752 32.4126 60.2546 32.4126 58.6255C32.4126 56.9964 31.092 55.6758 29.4629 55.6758C27.8338 55.6758 26.5132 56.9964 26.5132 58.6255C26.5132 60.2546 27.8338 61.5752 29.4629 61.5752Z" fill="#F1F0EA"/>
<path d="M44.1199 49.5242L32.2407 61.4033L36.4096 65.5722L48.2888 53.6931L44.1199 49.5242Z" fill="#F1F0EA"/>
<path d="M46.2427 54.5235C47.8718 54.5235 49.1924 53.2028 49.1924 51.5737C49.1924 49.9447 47.8718 48.624 46.2427 48.624C44.6136 48.624 43.293 49.9447 43.293 51.5737C43.293 53.2028 44.6136 54.5235 46.2427 54.5235Z" fill="#F1F0EA"/>
<path d="M34.3276 66.4405C35.9567 66.4405 37.2774 65.1198 37.2774 63.4907C37.2774 61.8617 35.9567 60.541 34.3276 60.541C32.6986 60.541 31.3779 61.8617 31.3779 63.4907C31.3779 65.1198 32.6986 66.4405 34.3276 66.4405Z" fill="#F1F0EA"/>
<path d="M48.9841 54.3904L37.105 66.2695L41.2739 70.4385L53.153 58.5593L48.9841 54.3904Z" fill="#F1F0EA"/>
<path d="M51.1079 59.3877C52.737 59.3877 54.0576 58.0671 54.0576 56.438C54.0576 54.8089 52.737 53.4883 51.1079 53.4883C49.4788 53.4883 48.1582 54.8089 48.1582 56.438C48.1582 58.0671 49.4788 59.3877 51.1079 59.3877Z" fill="#F1F0EA"/>
<path d="M39.1909 71.3047C40.82 71.3047 42.1406 69.9841 42.1406 68.355C42.1406 66.7259 40.82 65.4053 39.1909 65.4053C37.5618 65.4053 36.2412 66.7259 36.2412 68.355C36.2412 69.9841 37.5618 71.3047 39.1909 71.3047Z" fill="#F1F0EA"/>
<path d="M53.8489 59.2547L41.9697 71.1338L46.1387 75.3027L58.0178 63.4236L53.8489 59.2547Z" fill="#F1F0EA"/>
<path d="M55.9727 64.2529C57.6017 64.2529 58.9224 62.9323 58.9224 61.3032C58.9224 59.6741 57.6017 58.3535 55.9727 58.3535C54.3436 58.3535 53.0229 59.6741 53.0229 61.3032C53.0229 62.9323 54.3436 64.2529 55.9727 64.2529Z" fill="#F1F0EA"/>
<path d="M44.0557 76.168C45.6848 76.168 47.0054 74.8474 47.0054 73.2183C47.0054 71.5892 45.6848 70.2686 44.0557 70.2686C42.4266 70.2686 41.106 71.5892 41.106 73.2183C41.106 74.8474 42.4266 76.168 44.0557 76.168Z" fill="#F1F0EA"/>
<path d="M89.1412 63.0788V41.2C84.8936 41.2 80.6406 41.2726 76.393 41.1964C72.2797 41.1238 68.0031 41.9424 63.9443 41.0385C60.9183 40.365 58.7382 38.4246 56.0572 37.0486C53.9443 35.965 51.1416 35.1663 49.7965 37.7548C49.2047 38.8929 49.3391 40.2071 50.0107 41.2H10.8584V63.0788H39.6186C39.7039 63.2458 39.8001 63.4073 39.9109 63.5616L39.8873 63.6088L52.1781 75.8996L52.247 75.974C52.984 76.7092 53.9606 77.1158 55.0025 77.1158C56.0426 77.1158 57.021 76.711 57.7562 75.974C58.8163 74.914 59.1194 73.3946 58.7001 72.0532C59.074 72.1712 59.4625 72.2492 59.8673 72.2492C60.9074 72.2492 61.8858 71.8444 62.621 71.1075C63.681 70.0474 63.9842 68.528 63.5649 67.1884C63.9388 67.3064 64.3273 67.3845 64.7321 67.3845C65.774 67.3845 66.7506 66.9797 67.4875 66.2427C68.5476 65.1826 68.849 63.6633 68.4296 62.3236C68.5059 62.5705 68.5513 62.8246 68.5785 63.0788H89.1412ZM67.09 60.9858C66.5908 61.4832 66.4111 62.2165 66.6217 62.89C66.8486 63.6143 66.6671 64.3875 66.1461 64.9085C65.7685 65.2861 65.2657 65.4948 64.7302 65.4948C64.5596 65.4948 64.3636 65.4585 64.1294 65.3859C63.9424 65.3278 63.7518 65.2988 63.5631 65.2988C63.0693 65.2988 62.5865 65.493 62.2252 65.8524C61.7279 66.3498 61.5464 67.0831 61.7569 67.7566C61.9838 68.4808 61.8005 69.2541 61.2813 69.7751C60.9038 70.1526 60.401 70.3614 59.8655 70.3614C59.6948 70.3614 59.4988 70.3251 59.2646 70.2525C59.0777 70.1944 58.8871 70.1654 58.6983 70.1654C58.2046 70.1654 57.7217 70.3596 57.3605 70.719C56.8613 71.2164 56.6816 71.9497 56.8922 72.6232C57.1191 73.3474 56.9357 74.1207 56.4166 74.6399C56.0372 75.0192 55.5344 75.228 54.9989 75.228C54.4652 75.228 53.9824 75.0319 53.5994 74.658L53.5576 74.6054C53.5431 74.5908 53.5304 74.5763 53.5159 74.5618L41.5209 62.5669C41.4992 62.5306 41.4756 62.4961 41.4502 62.4598C41.4011 62.3908 41.3521 62.3091 41.3031 62.2129C40.9782 61.583 40.3302 61.1855 39.6204 61.1855H12.7498V43.0897C21.933 43.0897 31.118 43.0897 40.3011 43.0897C44.4797 43.0897 48.7273 42.8609 52.8551 43.6487C57.3859 44.5128 60.4082 46.8018 63.79 49.7606C65.5416 51.2926 73.7083 57.3445 71.0091 60.0401C70.6242 60.4231 70.1341 60.6264 69.5914 60.6264C69.4207 60.6264 69.2247 60.5901 68.9905 60.5175C68.8036 60.4594 68.613 60.4304 68.4242 60.4304C67.9323 60.4322 67.4494 60.6264 67.09 60.9858Z" fill="#F1F0EA"/>
</svg>
