<svg width="239" height="74" viewBox="0 0 239 74" fill="none" xmlns="http://www.w3.org/2000/svg">
<path d="M16.84 0.479999C16.84 0.346666 16.88 0.239999 16.96 0.159998C17.0667 0.0533315 17.1867 -1.90735e-06 17.32 -1.90735e-06H23C23.1333 -1.90735e-06 23.24 0.0533315 23.32 0.159998C23.4267 0.239999 23.48 0.346666 23.48 0.479999V27.52C23.48 27.6533 23.4267 27.7733 23.32 27.88C23.24 27.96 23.1333 28 23 28H17.56C17.2933 28 17.1067 27.8933 17 27.68L7.8 12.4C7.74667 12.32 7.69333 12.2933 7.64 12.32C7.58667 12.32 7.56 12.3733 7.56 12.48L7.6 27.52C7.6 27.6533 7.54667 27.7733 7.44 27.88C7.36 27.96 7.25333 28 7.12 28H1.44C1.30667 28 1.18667 27.96 1.08 27.88C1 27.7733 0.96 27.6533 0.96 27.52V0.479999C0.96 0.346666 1 0.239999 1.08 0.159998C1.18667 0.0533315 1.30667 -1.90735e-06 1.44 -1.90735e-06H6.92C7.18667 -1.90735e-06 7.37333 0.106665 7.48 0.319999L16.64 15.56C16.6933 15.64 16.7467 15.68 16.8 15.68C16.8533 15.6533 16.88 15.5867 16.88 15.48L16.84 0.479999ZM46.3244 15.84C46.4577 16.64 46.4977 17.6933 46.4444 19C46.4177 19.32 46.2444 19.48 45.9244 19.48H33.7244C33.671 19.48 33.6177 19.5067 33.5644 19.56C33.511 19.5867 33.4977 19.6267 33.5244 19.68C33.5777 19.9733 33.711 20.36 33.9244 20.84C34.2444 21.4 34.7244 21.8533 35.3644 22.2C36.0044 22.5467 36.791 22.72 37.7244 22.72C39.4044 22.72 40.7244 22.1733 41.6844 21.08C41.791 20.9467 41.911 20.88 42.0444 20.88C42.1777 20.88 42.2844 20.9333 42.3644 21.04L45.4444 24.56C45.551 24.64 45.6044 24.7467 45.6044 24.88C45.6044 24.9867 45.551 25.0933 45.4444 25.2C44.511 26.2133 43.351 26.9867 41.9644 27.52C40.6044 28.0533 39.111 28.32 37.4844 28.32C35.0577 28.32 32.991 27.8 31.2844 26.76C29.6044 25.6933 28.391 24.2133 27.6444 22.32C27.0844 20.9867 26.8044 19.32 26.8044 17.32C26.8044 15.9333 27.0177 14.6 27.4444 13.32C28.1377 11.3467 29.271 9.8 30.8444 8.68C32.4444 7.53333 34.3377 6.96 36.5244 6.96C38.2844 6.96 39.8577 7.34667 41.2444 8.12C42.631 8.86667 43.751 9.92 44.6044 11.28C45.4844 12.6133 46.0577 14.1333 46.3244 15.84ZM36.5244 12.68C35.1377 12.68 34.2177 13.3333 33.7644 14.64C33.6577 14.9333 33.591 15.2133 33.5644 15.48C33.511 15.6133 33.5644 15.68 33.7244 15.68H39.4044C39.511 15.68 39.5644 15.6267 39.5644 15.52C39.5644 15.3067 39.511 15.04 39.4044 14.72C39.2177 14.0533 38.871 13.5467 38.3644 13.2C37.8844 12.8533 37.271 12.68 36.5244 12.68ZM53.2284 28C52.9618 28 52.7884 27.8667 52.7084 27.6L46.9084 7.84L46.8684 7.68C46.8684 7.41333 47.0151 7.28 47.3084 7.28H53.1884C53.4818 7.28 53.6551 7.42667 53.7084 7.72L56.1084 18.56C56.1351 18.6667 56.1751 18.72 56.2284 18.72C56.2818 18.72 56.3218 18.6667 56.3484 18.56L58.9484 7.68C59.0284 7.41333 59.2018 7.28 59.4684 7.28H64.5884C64.8818 7.28 65.0684 7.41333 65.1484 7.68L67.8684 18.6C67.8951 18.68 67.9351 18.72 67.9884 18.72C68.0418 18.72 68.0818 18.68 68.1084 18.6L70.7884 7.68C70.8684 7.41333 71.0551 7.28 71.3484 7.28L77.1884 7.36C77.3484 7.36 77.4551 7.41333 77.5084 7.52C77.5884 7.6 77.6151 7.72 77.5884 7.88L71.7084 27.6C71.6284 27.8667 71.4551 28 71.1884 28H65.3084C65.0151 28 64.8284 27.8667 64.7484 27.6L62.1084 18.28C62.0818 18.2 62.0418 18.16 61.9884 18.16C61.9351 18.16 61.8951 18.2 61.8684 18.28L59.6284 27.6C59.5484 27.8667 59.3751 28 59.1084 28H53.2284ZM106.623 28C106.329 28 106.143 27.8667 106.063 27.6L105.023 24.04C104.969 23.9333 104.903 23.88 104.823 23.88H95.7028C95.6228 23.88 95.5561 23.9333 95.5028 24.04L94.4628 27.6C94.3828 27.8667 94.1961 28 93.9028 28H87.7828C87.6228 28 87.5028 27.96 87.4228 27.88C87.3428 27.7733 87.3295 27.6267 87.3828 27.44L95.9428 0.399998C96.0228 0.133331 96.1961 -1.90735e-06 96.4628 -1.90735e-06H104.023C104.289 -1.90735e-06 104.463 0.133331 104.543 0.399998L113.143 27.44C113.169 27.4933 113.183 27.56 113.183 27.64C113.183 27.88 113.036 28 112.743 28H106.623ZM97.1028 18.52C97.0761 18.68 97.1295 18.76 97.2628 18.76H103.223C103.383 18.76 103.436 18.68 103.383 18.52L100.343 8.24C100.316 8.13333 100.276 8.09333 100.223 8.12C100.169 8.12 100.129 8.16 100.103 8.24L97.1028 18.52ZM119.255 28C118.989 28 118.815 27.8667 118.735 27.6L112.455 7.84C112.429 7.78667 112.415 7.72 112.415 7.64C112.415 7.4 112.562 7.28 112.855 7.28H119.095C119.389 7.28 119.575 7.41333 119.655 7.68L122.295 18.68C122.322 18.76 122.362 18.8 122.415 18.8C122.469 18.8 122.509 18.76 122.535 18.68L125.215 7.68C125.295 7.41333 125.482 7.28 125.775 7.28L131.975 7.36C132.135 7.36 132.255 7.41333 132.335 7.52C132.415 7.6 132.429 7.73333 132.375 7.92L126.135 27.6C126.055 27.8667 125.882 28 125.615 28H119.255ZM152.457 15.84C152.591 16.64 152.631 17.6933 152.577 19C152.551 19.32 152.377 19.48 152.057 19.48H139.857C139.804 19.48 139.751 19.5067 139.697 19.56C139.644 19.5867 139.631 19.6267 139.657 19.68C139.711 19.9733 139.844 20.36 140.057 20.84C140.377 21.4 140.857 21.8533 141.497 22.2C142.137 22.5467 142.924 22.72 143.857 22.72C145.537 22.72 146.857 22.1733 147.817 21.08C147.924 20.9467 148.044 20.88 148.177 20.88C148.311 20.88 148.417 20.9333 148.497 21.04L151.577 24.56C151.684 24.64 151.737 24.7467 151.737 24.88C151.737 24.9867 151.684 25.0933 151.577 25.2C150.644 26.2133 149.484 26.9867 148.097 27.52C146.737 28.0533 145.244 28.32 143.617 28.32C141.191 28.32 139.124 27.8 137.417 26.76C135.737 25.6933 134.524 24.2133 133.777 22.32C133.217 20.9867 132.937 19.32 132.937 17.32C132.937 15.9333 133.151 14.6 133.577 13.32C134.271 11.3467 135.404 9.8 136.977 8.68C138.577 7.53333 140.471 6.96 142.657 6.96C144.417 6.96 145.991 7.34667 147.377 8.12C148.764 8.86667 149.884 9.92 150.737 11.28C151.617 12.6133 152.191 14.1333 152.457 15.84ZM142.657 12.68C141.271 12.68 140.351 13.3333 139.897 14.64C139.791 14.9333 139.724 15.2133 139.697 15.48C139.644 15.6133 139.697 15.68 139.857 15.68H145.537C145.644 15.68 145.697 15.6267 145.697 15.52C145.697 15.3067 145.644 15.04 145.537 14.72C145.351 14.0533 145.004 13.5467 144.497 13.2C144.017 12.8533 143.404 12.68 142.657 12.68ZM166.929 7C169.009 7 170.716 7.66667 172.049 9C173.383 10.3067 174.049 12.0933 174.049 14.36V27.52C174.049 27.6533 173.996 27.7733 173.889 27.88C173.809 27.96 173.703 28 173.569 28H167.889C167.756 28 167.636 27.96 167.529 27.88C167.449 27.7733 167.409 27.6533 167.409 27.52V15.8C167.409 14.8933 167.156 14.1467 166.649 13.56C166.143 12.9733 165.489 12.68 164.689 12.68C163.863 12.68 163.196 12.9733 162.689 13.56C162.183 14.12 161.929 14.8667 161.929 15.8V27.52C161.929 27.6533 161.876 27.7733 161.769 27.88C161.689 27.96 161.583 28 161.449 28H155.769C155.636 28 155.516 27.96 155.409 27.88C155.329 27.7733 155.289 27.6533 155.289 27.52V7.8C155.289 7.66667 155.329 7.56 155.409 7.48C155.516 7.37333 155.636 7.32 155.769 7.32H161.449C161.583 7.32 161.689 7.37333 161.769 7.48C161.876 7.56 161.929 7.66667 161.929 7.8V9.28C161.929 9.38667 161.943 9.45333 161.969 9.48C162.023 9.48 162.076 9.44 162.129 9.36C163.143 7.78667 164.743 7 166.929 7ZM189.242 7.8C189.242 7.66667 189.282 7.56 189.362 7.48C189.468 7.37333 189.588 7.32 189.722 7.32H195.402C195.535 7.32 195.642 7.37333 195.722 7.48C195.828 7.56 195.882 7.66667 195.882 7.8V27.52C195.882 27.6533 195.828 27.7733 195.722 27.88C195.642 27.96 195.535 28 195.402 28H189.722C189.588 28 189.468 27.96 189.362 27.88C189.282 27.7733 189.242 27.6533 189.242 27.52V26.12C189.242 26.04 189.215 25.9867 189.162 25.96C189.108 25.9333 189.055 25.96 189.002 26.04C187.935 27.56 186.255 28.32 183.962 28.32C181.935 28.32 180.295 27.68 179.042 26.4C177.788 25.12 177.162 23.3333 177.162 21.04V7.8C177.162 7.66667 177.202 7.56 177.282 7.48C177.388 7.37333 177.508 7.32 177.642 7.32H183.322C183.455 7.32 183.562 7.37333 183.642 7.48C183.748 7.56 183.802 7.66667 183.802 7.8V19.52C183.802 20.4533 184.042 21.2 184.522 21.76C185.002 22.32 185.655 22.6 186.482 22.6C187.228 22.6 187.842 22.3733 188.322 21.92C188.828 21.4667 189.135 20.8667 189.242 20.12V7.8ZM218.395 15.84C218.528 16.64 218.568 17.6933 218.515 19C218.488 19.32 218.315 19.48 217.995 19.48H205.795C205.741 19.48 205.688 19.5067 205.635 19.56C205.581 19.5867 205.568 19.6267 205.595 19.68C205.648 19.9733 205.781 20.36 205.995 20.84C206.315 21.4 206.795 21.8533 207.435 22.2C208.075 22.5467 208.861 22.72 209.795 22.72C211.475 22.72 212.795 22.1733 213.755 21.08C213.861 20.9467 213.981 20.88 214.115 20.88C214.248 20.88 214.355 20.9333 214.435 21.04L217.515 24.56C217.621 24.64 217.675 24.7467 217.675 24.88C217.675 24.9867 217.621 25.0933 217.515 25.2C216.581 26.2133 215.421 26.9867 214.035 27.52C212.675 28.0533 211.181 28.32 209.555 28.32C207.128 28.32 205.061 27.8 203.355 26.76C201.675 25.6933 200.461 24.2133 199.715 22.32C199.155 20.9867 198.875 19.32 198.875 17.32C198.875 15.9333 199.088 14.6 199.515 13.32C200.208 11.3467 201.341 9.8 202.915 8.68C204.515 7.53333 206.408 6.96 208.595 6.96C210.355 6.96 211.928 7.34667 213.315 8.12C214.701 8.86667 215.821 9.92 216.675 11.28C217.555 12.6133 218.128 14.1333 218.395 15.84ZM208.595 12.68C207.208 12.68 206.288 13.3333 205.835 14.64C205.728 14.9333 205.661 15.2133 205.635 15.48C205.581 15.6133 205.635 15.68 205.795 15.68H211.475C211.581 15.68 211.635 15.6267 211.635 15.52C211.635 15.3067 211.581 15.04 211.475 14.72C211.288 14.0533 210.941 13.5467 210.435 13.2C209.955 12.8533 209.341 12.68 208.595 12.68ZM229.793 28.32C227.899 28.32 226.246 28.0667 224.833 27.56C223.419 27.0267 222.326 26.2933 221.553 25.36C220.806 24.4 220.433 23.3067 220.433 22.08V21.64C220.433 21.5067 220.473 21.4 220.553 21.32C220.659 21.2133 220.779 21.16 220.913 21.16H226.313C226.446 21.16 226.553 21.2133 226.633 21.32C226.739 21.4 226.793 21.5067 226.793 21.64C226.793 22.1467 227.073 22.5733 227.633 22.92C228.193 23.24 228.899 23.4 229.753 23.4C230.499 23.4 231.086 23.28 231.513 23.04C231.966 22.7733 232.193 22.4267 232.193 22C232.193 21.5733 231.953 21.2667 231.473 21.08C231.019 20.8667 230.273 20.6667 229.233 20.48C227.553 20.16 226.193 19.7733 225.153 19.32C223.793 18.76 222.713 18.0667 221.913 17.24C221.113 16.3867 220.713 15.2267 220.713 13.76C220.713 11.68 221.513 10.04 223.113 8.84C224.739 7.61333 226.873 7 229.513 7C231.299 7 232.859 7.29333 234.193 7.88C235.553 8.44 236.606 9.24 237.353 10.28C238.099 11.32 238.473 12.52 238.473 13.88C238.473 14.0133 238.419 14.1333 238.313 14.24C238.233 14.32 238.126 14.36 237.993 14.36H232.753C232.619 14.36 232.499 14.32 232.393 14.24C232.313 14.1333 232.273 14.0133 232.273 13.88C232.273 13.3733 232.033 12.96 231.553 12.64C231.073 12.32 230.419 12.16 229.592 12.16C228.846 12.16 228.233 12.2933 227.753 12.56C227.299 12.8 227.073 13.1467 227.073 13.6C227.073 14.0533 227.326 14.3867 227.833 14.6C228.339 14.7867 229.193 15 230.393 15.24C231.939 15.56 233.019 15.8133 233.633 16C235.286 16.5333 236.566 17.2533 237.473 18.16C238.406 19.0667 238.873 20.28 238.873 21.8C238.873 23.88 238.046 25.4933 236.393 26.64C234.766 27.76 232.566 28.32 229.793 28.32ZM12.24 47.48C10.8 47.48 9.77333 47.8133 9.16 48.48C8.57333 49.12 8.18667 50.2267 8 51.8L7.92 52.6C7.89333 52.6267 7.89333 52.6667 7.92 52.72C7.94667 52.7467 7.98667 52.76 8.04 52.76H12.4C12.6667 52.76 12.7733 52.8933 12.72 53.16L12.52 54.96C12.4667 55.2267 12.32 55.36 12.08 55.36H7.72C7.61333 55.36 7.56 55.4133 7.56 55.52L5.44 72.6C5.44 72.7067 5.4 72.8 5.32 72.88C5.24 72.96 5.13333 73 5 73H3.08C2.84 73 2.72 72.8667 2.72 72.6L4.84 55.52C4.84 55.4133 4.78667 55.36 4.68 55.36H2.08C1.97333 55.36 1.88 55.32 1.8 55.24C1.74667 55.16 1.73333 55.0667 1.76 54.96L1.96 53.16C1.98667 53.0533 2.04 52.96 2.12 52.88C2.2 52.8 2.29333 52.76 2.4 52.76H5C5.05333 52.76 5.09333 52.7467 5.12 52.72C5.17333 52.6933 5.2 52.6533 5.2 52.6L5.32 51.64C5.50667 50.0133 5.84 48.72 6.32 47.76C6.8 46.8 7.50667 46.1067 8.44 45.68C9.4 45.2267 10.68 45 12.28 45H13.4C13.5333 45 13.6267 45.04 13.68 45.12C13.76 45.2 13.7867 45.2933 13.76 45.4L13.56 47.08C13.5067 47.3467 13.36 47.48 13.12 47.48H12.24ZM20.7131 73.32C18.8465 73.32 17.2998 72.8267 16.0731 71.84C14.8465 70.8533 14.0865 69.4933 13.7931 67.76C13.7131 67.2 13.6731 66.56 13.6731 65.84C13.6731 65.04 13.7398 64.04 13.8731 62.84C14.1131 60.8133 14.4865 59.1867 14.9931 57.96C15.6865 56.2533 16.7665 54.9067 18.2331 53.92C19.7265 52.9333 21.4198 52.44 23.3131 52.44C25.1531 52.44 26.6731 52.9333 27.8731 53.92C29.0998 54.9067 29.8598 56.24 30.1531 57.92C30.2598 58.4267 30.3131 59.0533 30.3131 59.8C30.3131 60.3867 30.2331 61.4 30.0731 62.84C29.8065 64.9733 29.4331 66.6133 28.9531 67.76C28.2598 69.4933 27.1798 70.8533 25.7131 71.84C24.2465 72.8267 22.5798 73.32 20.7131 73.32ZM21.0331 70.84C22.2598 70.84 23.3531 70.4933 24.3131 69.8C25.2998 69.08 26.0198 68.12 26.4731 66.92C26.8198 66.0133 27.0998 64.6667 27.3131 62.88C27.4731 61.6267 27.5531 60.5867 27.5531 59.76C27.5531 59.3333 27.5398 59.0267 27.5131 58.84C27.3531 57.64 26.8598 56.6933 26.0331 56C25.2331 55.28 24.2065 54.92 22.9531 54.92C21.6998 54.92 20.5931 55.28 19.6331 56C18.6731 56.6933 17.9531 57.64 17.4731 58.84C17.1531 59.72 16.8865 61.0667 16.6731 62.88C16.5131 64.08 16.4331 65.1067 16.4331 65.96C16.4331 66.4133 16.4465 66.7333 16.4731 66.92C16.6065 68.12 17.0731 69.08 17.8731 69.8C18.6998 70.4933 19.7531 70.84 21.0331 70.84ZM44.885 52.56C45.7383 52.56 46.4583 52.7333 47.045 53.08C47.205 53.1867 47.2583 53.36 47.205 53.6L46.525 55.56C46.3917 55.8267 46.2183 55.9067 46.005 55.8C45.5783 55.6133 45.085 55.52 44.525 55.52L44.005 55.56C42.645 55.6133 41.4717 56.1333 40.485 57.12C39.4983 58.08 38.9117 59.3067 38.725 60.8L37.245 72.6C37.245 72.7067 37.205 72.8 37.125 72.88C37.045 72.96 36.9383 73 36.805 73H34.845C34.605 73 34.485 72.8667 34.485 72.6L36.885 53.16C36.9383 52.8933 37.085 52.76 37.325 52.76H39.285C39.4183 52.76 39.5117 52.8 39.565 52.88C39.645 52.96 39.6717 53.0533 39.645 53.16L39.325 55.6C39.325 55.68 39.3383 55.7333 39.365 55.76C39.4183 55.76 39.4717 55.7333 39.525 55.68C40.165 54.6933 40.9383 53.9333 41.845 53.4C42.7517 52.84 43.765 52.56 44.885 52.56ZM64.0744 72.92C63.941 72.92 63.821 72.88 63.7144 72.8C63.6344 72.6933 63.5944 72.5733 63.5944 72.44V62.96C63.5944 62.8533 63.581 62.7733 63.5544 62.72L55.3544 45.56C55.301 45.4533 55.2744 45.3733 55.2744 45.32C55.2744 45.1067 55.421 45 55.7144 45H61.8744C62.141 45 62.3277 45.12 62.4344 45.36L66.7944 55.48C66.8744 55.64 66.9544 55.64 67.0344 55.48L71.4344 45.36C71.541 45.12 71.7277 45 71.9944 45H78.1944C78.381 45 78.501 45.0533 78.5544 45.16C78.6344 45.24 78.6344 45.3733 78.5544 45.56L70.2344 62.72C70.2077 62.7733 70.1944 62.8533 70.1944 62.96V72.44C70.1944 72.5733 70.141 72.6933 70.0344 72.8C69.9544 72.88 69.8477 72.92 69.7144 72.92H64.0744ZM87.3866 73.32C84.9866 73.32 82.9466 72.68 81.2666 71.4C79.5866 70.12 78.4666 68.3867 77.9066 66.2C77.5866 65.1067 77.4266 63.9067 77.4266 62.6C77.4266 61.1333 77.5999 59.84 77.9466 58.72C78.5599 56.6133 79.6932 54.9733 81.3466 53.8C83.0266 52.6 85.0532 52 87.4266 52C89.7732 52 91.7599 52.6 93.3866 53.8C95.0132 54.9733 96.1466 56.6 96.7866 58.68C97.1599 59.88 97.3466 61.16 97.3466 62.52C97.3466 63.7467 97.1999 64.92 96.9066 66.04C96.3466 68.28 95.2266 70.0533 93.5466 71.36C91.8666 72.6667 89.8132 73.32 87.3866 73.32ZM87.3866 67.64C88.1599 67.64 88.7999 67.4 89.3066 66.92C89.8132 66.4133 90.1866 65.7333 90.4266 64.88C90.5866 64.1867 90.6666 63.4267 90.6666 62.6C90.6666 61.8 90.5732 61.0267 90.3866 60.28C90.1732 59.4533 89.8132 58.8133 89.3066 58.36C88.7999 57.9067 88.1599 57.68 87.3866 57.68C85.8399 57.68 84.8266 58.5467 84.3466 60.28C84.1866 60.92 84.1066 61.6933 84.1066 62.6C84.1066 63.4267 84.1866 64.1867 84.3466 64.88C84.5599 65.7333 84.9199 66.4133 85.4266 66.92C85.9599 67.4 86.6132 67.64 87.3866 67.64ZM112.171 52.8C112.171 52.6667 112.211 52.56 112.291 52.48C112.398 52.3733 112.518 52.32 112.651 52.32H118.331C118.465 52.32 118.571 52.3733 118.651 52.48C118.758 52.56 118.811 52.6667 118.811 52.8V72.52C118.811 72.6533 118.758 72.7733 118.651 72.88C118.571 72.96 118.465 73 118.331 73H112.651C112.518 73 112.398 72.96 112.291 72.88C112.211 72.7733 112.171 72.6533 112.171 72.52V71.12C112.171 71.04 112.145 70.9867 112.091 70.96C112.038 70.9333 111.985 70.96 111.931 71.04C110.865 72.56 109.185 73.32 106.891 73.32C104.865 73.32 103.225 72.68 101.971 71.4C100.718 70.12 100.091 68.3333 100.091 66.04V52.8C100.091 52.6667 100.131 52.56 100.211 52.48C100.318 52.3733 100.438 52.32 100.571 52.32H106.251C106.385 52.32 106.491 52.3733 106.571 52.48C106.678 52.56 106.731 52.6667 106.731 52.8V64.52C106.731 65.4533 106.971 66.2 107.451 66.76C107.931 67.32 108.585 67.6 109.411 67.6C110.158 67.6 110.771 67.3733 111.251 66.92C111.758 66.4667 112.065 65.8667 112.171 65.12V52.8ZM134.924 57.16C134.924 57.2933 134.871 57.4133 134.764 57.52C134.684 57.6 134.578 57.64 134.444 57.64H130.804C130.671 57.64 130.604 57.7067 130.604 57.84V65.12C130.604 66.64 131.218 67.4 132.444 67.4H133.924C134.058 67.4 134.164 67.4533 134.244 67.56C134.351 67.64 134.404 67.7467 134.404 67.88V72.52C134.404 72.8133 134.244 72.9867 133.924 73.04C132.644 73.0933 131.711 73.12 131.124 73.12C128.804 73.12 127.084 72.76 125.964 72.04C124.844 71.2933 124.271 69.8933 124.244 67.84V57.84C124.244 57.7067 124.178 57.64 124.044 57.64H121.764C121.631 57.64 121.511 57.6 121.404 57.52C121.324 57.4133 121.284 57.2933 121.284 57.16V52.8C121.284 52.6667 121.324 52.56 121.404 52.48C121.511 52.3733 121.631 52.32 121.764 52.32H124.044C124.178 52.32 124.244 52.2533 124.244 52.12V47.28C124.244 47.1467 124.284 47.04 124.364 46.96C124.471 46.8533 124.591 46.8 124.724 46.8H130.124C130.258 46.8 130.364 46.8533 130.444 46.96C130.551 47.04 130.604 47.1467 130.604 47.28V52.12C130.604 52.2533 130.671 52.32 130.804 52.32H134.444C134.578 52.32 134.684 52.3733 134.764 52.48C134.871 52.56 134.924 52.6667 134.924 52.8V57.16ZM149.234 52C151.314 52 153.021 52.6667 154.354 54C155.687 55.3067 156.354 57.0933 156.354 59.36V72.52C156.354 72.6533 156.301 72.7733 156.194 72.88C156.114 72.96 156.007 73 155.874 73H150.194C150.061 73 149.941 72.96 149.834 72.88C149.754 72.7733 149.714 72.6533 149.714 72.52V60.8C149.714 59.8933 149.461 59.1467 148.954 58.56C148.447 57.9733 147.794 57.68 146.994 57.68C146.167 57.68 145.501 57.9733 144.994 58.56C144.487 59.12 144.234 59.8667 144.234 60.8V72.52C144.234 72.6533 144.181 72.7733 144.074 72.88C143.994 72.96 143.887 73 143.754 73H138.074C137.941 73 137.821 72.96 137.714 72.88C137.634 72.7733 137.594 72.6533 137.594 72.52V45.48C137.594 45.3467 137.634 45.24 137.714 45.16C137.821 45.0533 137.941 45 138.074 45H143.754C143.887 45 143.994 45.0533 144.074 45.16C144.181 45.24 144.234 45.3467 144.234 45.48V54.28C144.234 54.3867 144.247 54.4533 144.274 54.48C144.327 54.48 144.381 54.44 144.434 54.36C145.447 52.7867 147.047 52 149.234 52Z" fill="#5796A4"/>
</svg>
