<svg width="406" height="29" viewBox="0 0 406 29" fill="none" xmlns="http://www.w3.org/2000/svg">
<path d="M16.84 0.479999C16.84 0.346666 16.88 0.239999 16.96 0.159998C17.0667 0.0533315 17.1867 -1.90735e-06 17.32 -1.90735e-06H23C23.1333 -1.90735e-06 23.24 0.0533315 23.32 0.159998C23.4267 0.239999 23.48 0.346666 23.48 0.479999V27.52C23.48 27.6533 23.4267 27.7733 23.32 27.88C23.24 27.96 23.1333 28 23 28H17.56C17.2933 28 17.1067 27.8933 17 27.68L7.8 12.4C7.74667 12.32 7.69333 12.2933 7.64 12.32C7.58667 12.32 7.56 12.3733 7.56 12.48L7.6 27.52C7.6 27.6533 7.54667 27.7733 7.44 27.88C7.36 27.96 7.25333 28 7.12 28H1.44C1.30667 28 1.18667 27.96 1.08 27.88C1 27.7733 0.96 27.6533 0.96 27.52V0.479999C0.96 0.346666 1 0.239999 1.08 0.159998C1.18667 0.0533315 1.30667 -1.90735e-06 1.44 -1.90735e-06H6.92C7.18667 -1.90735e-06 7.37333 0.106665 7.48 0.319999L16.64 15.56C16.6933 15.64 16.7467 15.68 16.8 15.68C16.8533 15.6533 16.88 15.5867 16.88 15.48L16.84 0.479999ZM46.3244 15.84C46.4577 16.64 46.4977 17.6933 46.4444 19C46.4177 19.32 46.2444 19.48 45.9244 19.48H33.7244C33.671 19.48 33.6177 19.5067 33.5644 19.56C33.511 19.5867 33.4977 19.6267 33.5244 19.68C33.5777 19.9733 33.711 20.36 33.9244 20.84C34.2444 21.4 34.7244 21.8533 35.3644 22.2C36.0044 22.5467 36.791 22.72 37.7244 22.72C39.4044 22.72 40.7244 22.1733 41.6844 21.08C41.791 20.9467 41.911 20.88 42.0444 20.88C42.1777 20.88 42.2844 20.9333 42.3644 21.04L45.4444 24.56C45.551 24.64 45.6044 24.7467 45.6044 24.88C45.6044 24.9867 45.551 25.0933 45.4444 25.2C44.511 26.2133 43.351 26.9867 41.9644 27.52C40.6044 28.0533 39.111 28.32 37.4844 28.32C35.0577 28.32 32.991 27.8 31.2844 26.76C29.6044 25.6933 28.391 24.2133 27.6444 22.32C27.0844 20.9867 26.8044 19.32 26.8044 17.32C26.8044 15.9333 27.0177 14.6 27.4444 13.32C28.1377 11.3467 29.271 9.8 30.8444 8.68C32.4444 7.53333 34.3377 6.96 36.5244 6.96C38.2844 6.96 39.8577 7.34667 41.2444 8.12C42.631 8.86667 43.751 9.92 44.6044 11.28C45.4844 12.6133 46.0577 14.1333 46.3244 15.84ZM36.5244 12.68C35.1377 12.68 34.2177 13.3333 33.7644 14.64C33.6577 14.9333 33.591 15.2133 33.5644 15.48C33.511 15.6133 33.5644 15.68 33.7244 15.68H39.4044C39.511 15.68 39.5644 15.6267 39.5644 15.52C39.5644 15.3067 39.511 15.04 39.4044 14.72C39.2177 14.0533 38.871 13.5467 38.3644 13.2C37.8844 12.8533 37.271 12.68 36.5244 12.68ZM53.2284 28C52.9618 28 52.7884 27.8667 52.7084 27.6L46.9084 7.84L46.8684 7.68C46.8684 7.41333 47.0151 7.28 47.3084 7.28H53.1884C53.4818 7.28 53.6551 7.42667 53.7084 7.72L56.1084 18.56C56.1351 18.6667 56.1751 18.72 56.2284 18.72C56.2818 18.72 56.3218 18.6667 56.3484 18.56L58.9484 7.68C59.0284 7.41333 59.2018 7.28 59.4684 7.28H64.5884C64.8818 7.28 65.0684 7.41333 65.1484 7.68L67.8684 18.6C67.8951 18.68 67.9351 18.72 67.9884 18.72C68.0418 18.72 68.0818 18.68 68.1084 18.6L70.7884 7.68C70.8684 7.41333 71.0551 7.28 71.3484 7.28L77.1884 7.36C77.3484 7.36 77.4551 7.41333 77.5084 7.52C77.5884 7.6 77.6151 7.72 77.5884 7.88L71.7084 27.6C71.6284 27.8667 71.4551 28 71.1884 28H65.3084C65.0151 28 64.8284 27.8667 64.7484 27.6L62.1084 18.28C62.0818 18.2 62.0418 18.16 61.9884 18.16C61.9351 18.16 61.8951 18.2 61.8684 18.28L59.6284 27.6C59.5484 27.8667 59.3751 28 59.1084 28H53.2284ZM106.623 28C106.329 28 106.143 27.8667 106.063 27.6L105.023 24.04C104.969 23.9333 104.903 23.88 104.823 23.88H95.7028C95.6228 23.88 95.5561 23.9333 95.5028 24.04L94.4628 27.6C94.3828 27.8667 94.1961 28 93.9028 28H87.7828C87.6228 28 87.5028 27.96 87.4228 27.88C87.3428 27.7733 87.3295 27.6267 87.3828 27.44L95.9428 0.399998C96.0228 0.133331 96.1961 -1.90735e-06 96.4628 -1.90735e-06H104.023C104.289 -1.90735e-06 104.463 0.133331 104.543 0.399998L113.143 27.44C113.169 27.4933 113.183 27.56 113.183 27.64C113.183 27.88 113.036 28 112.743 28H106.623ZM97.1028 18.52C97.0761 18.68 97.1295 18.76 97.2628 18.76H103.223C103.383 18.76 103.436 18.68 103.383 18.52L100.343 8.24C100.316 8.13333 100.276 8.09333 100.223 8.12C100.169 8.12 100.129 8.16 100.103 8.24L97.1028 18.52ZM119.255 28C118.989 28 118.815 27.8667 118.735 27.6L112.455 7.84C112.429 7.78667 112.415 7.72 112.415 7.64C112.415 7.4 112.562 7.28 112.855 7.28H119.095C119.389 7.28 119.575 7.41333 119.655 7.68L122.295 18.68C122.322 18.76 122.362 18.8 122.415 18.8C122.469 18.8 122.509 18.76 122.535 18.68L125.215 7.68C125.295 7.41333 125.482 7.28 125.775 7.28L131.975 7.36C132.135 7.36 132.255 7.41333 132.335 7.52C132.415 7.6 132.429 7.73333 132.375 7.92L126.135 27.6C126.055 27.8667 125.882 28 125.615 28H119.255ZM152.457 15.84C152.591 16.64 152.631 17.6933 152.577 19C152.551 19.32 152.377 19.48 152.057 19.48H139.857C139.804 19.48 139.751 19.5067 139.697 19.56C139.644 19.5867 139.631 19.6267 139.657 19.68C139.711 19.9733 139.844 20.36 140.057 20.84C140.377 21.4 140.857 21.8533 141.497 22.2C142.137 22.5467 142.924 22.72 143.857 22.72C145.537 22.72 146.857 22.1733 147.817 21.08C147.924 20.9467 148.044 20.88 148.177 20.88C148.311 20.88 148.417 20.9333 148.497 21.04L151.577 24.56C151.684 24.64 151.737 24.7467 151.737 24.88C151.737 24.9867 151.684 25.0933 151.577 25.2C150.644 26.2133 149.484 26.9867 148.097 27.52C146.737 28.0533 145.244 28.32 143.617 28.32C141.191 28.32 139.124 27.8 137.417 26.76C135.737 25.6933 134.524 24.2133 133.777 22.32C133.217 20.9867 132.937 19.32 132.937 17.32C132.937 15.9333 133.151 14.6 133.577 13.32C134.271 11.3467 135.404 9.8 136.977 8.68C138.577 7.53333 140.471 6.96 142.657 6.96C144.417 6.96 145.991 7.34667 147.377 8.12C148.764 8.86667 149.884 9.92 150.737 11.28C151.617 12.6133 152.191 14.1333 152.457 15.84ZM142.657 12.68C141.271 12.68 140.351 13.3333 139.897 14.64C139.791 14.9333 139.724 15.2133 139.697 15.48C139.644 15.6133 139.697 15.68 139.857 15.68H145.537C145.644 15.68 145.697 15.6267 145.697 15.52C145.697 15.3067 145.644 15.04 145.537 14.72C145.351 14.0533 145.004 13.5467 144.497 13.2C144.017 12.8533 143.404 12.68 142.657 12.68ZM166.929 7C169.009 7 170.716 7.66667 172.049 9C173.383 10.3067 174.049 12.0933 174.049 14.36V27.52C174.049 27.6533 173.996 27.7733 173.889 27.88C173.809 27.96 173.703 28 173.569 28H167.889C167.756 28 167.636 27.96 167.529 27.88C167.449 27.7733 167.409 27.6533 167.409 27.52V15.8C167.409 14.8933 167.156 14.1467 166.649 13.56C166.143 12.9733 165.489 12.68 164.689 12.68C163.863 12.68 163.196 12.9733 162.689 13.56C162.183 14.12 161.929 14.8667 161.929 15.8V27.52C161.929 27.6533 161.876 27.7733 161.769 27.88C161.689 27.96 161.583 28 161.449 28H155.769C155.636 28 155.516 27.96 155.409 27.88C155.329 27.7733 155.289 27.6533 155.289 27.52V7.8C155.289 7.66667 155.329 7.56 155.409 7.48C155.516 7.37333 155.636 7.32 155.769 7.32H161.449C161.583 7.32 161.689 7.37333 161.769 7.48C161.876 7.56 161.929 7.66667 161.929 7.8V9.28C161.929 9.38667 161.943 9.45333 161.969 9.48C162.023 9.48 162.076 9.44 162.129 9.36C163.143 7.78667 164.743 7 166.929 7ZM189.242 7.8C189.242 7.66667 189.282 7.56 189.362 7.48C189.468 7.37333 189.588 7.32 189.722 7.32H195.402C195.535 7.32 195.642 7.37333 195.722 7.48C195.828 7.56 195.882 7.66667 195.882 7.8V27.52C195.882 27.6533 195.828 27.7733 195.722 27.88C195.642 27.96 195.535 28 195.402 28H189.722C189.588 28 189.468 27.96 189.362 27.88C189.282 27.7733 189.242 27.6533 189.242 27.52V26.12C189.242 26.04 189.215 25.9867 189.162 25.96C189.108 25.9333 189.055 25.96 189.002 26.04C187.935 27.56 186.255 28.32 183.962 28.32C181.935 28.32 180.295 27.68 179.042 26.4C177.788 25.12 177.162 23.3333 177.162 21.04V7.8C177.162 7.66667 177.202 7.56 177.282 7.48C177.388 7.37333 177.508 7.32 177.642 7.32H183.322C183.455 7.32 183.562 7.37333 183.642 7.48C183.748 7.56 183.802 7.66667 183.802 7.8V19.52C183.802 20.4533 184.042 21.2 184.522 21.76C185.002 22.32 185.655 22.6 186.482 22.6C187.228 22.6 187.842 22.3733 188.322 21.92C188.828 21.4667 189.135 20.8667 189.242 20.12V7.8ZM218.395 15.84C218.528 16.64 218.568 17.6933 218.515 19C218.488 19.32 218.315 19.48 217.995 19.48H205.795C205.741 19.48 205.688 19.5067 205.635 19.56C205.581 19.5867 205.568 19.6267 205.595 19.68C205.648 19.9733 205.781 20.36 205.995 20.84C206.315 21.4 206.795 21.8533 207.435 22.2C208.075 22.5467 208.861 22.72 209.795 22.72C211.475 22.72 212.795 22.1733 213.755 21.08C213.861 20.9467 213.981 20.88 214.115 20.88C214.248 20.88 214.355 20.9333 214.435 21.04L217.515 24.56C217.621 24.64 217.675 24.7467 217.675 24.88C217.675 24.9867 217.621 25.0933 217.515 25.2C216.581 26.2133 215.421 26.9867 214.035 27.52C212.675 28.0533 211.181 28.32 209.555 28.32C207.128 28.32 205.061 27.8 203.355 26.76C201.675 25.6933 200.461 24.2133 199.715 22.32C199.155 20.9867 198.875 19.32 198.875 17.32C198.875 15.9333 199.088 14.6 199.515 13.32C200.208 11.3467 201.341 9.8 202.915 8.68C204.515 7.53333 206.408 6.96 208.595 6.96C210.355 6.96 211.928 7.34667 213.315 8.12C214.701 8.86667 215.821 9.92 216.675 11.28C217.555 12.6133 218.128 14.1333 218.395 15.84ZM208.595 12.68C207.208 12.68 206.288 13.3333 205.835 14.64C205.728 14.9333 205.661 15.2133 205.635 15.48C205.581 15.6133 205.635 15.68 205.795 15.68H211.475C211.581 15.68 211.635 15.6267 211.635 15.52C211.635 15.3067 211.581 15.04 211.475 14.72C211.288 14.0533 210.941 13.5467 210.435 13.2C209.955 12.8533 209.341 12.68 208.595 12.68ZM229.793 28.32C227.899 28.32 226.246 28.0667 224.833 27.56C223.419 27.0267 222.326 26.2933 221.553 25.36C220.806 24.4 220.433 23.3067 220.433 22.08V21.64C220.433 21.5067 220.473 21.4 220.553 21.32C220.659 21.2133 220.779 21.16 220.913 21.16H226.313C226.446 21.16 226.553 21.2133 226.633 21.32C226.739 21.4 226.793 21.5067 226.793 21.64C226.793 22.1467 227.073 22.5733 227.633 22.92C228.193 23.24 228.899 23.4 229.753 23.4C230.499 23.4 231.086 23.28 231.513 23.04C231.966 22.7733 232.193 22.4267 232.193 22C232.193 21.5733 231.953 21.2667 231.473 21.08C231.019 20.8667 230.273 20.6667 229.233 20.48C227.553 20.16 226.193 19.7733 225.153 19.32C223.793 18.76 222.713 18.0667 221.913 17.24C221.113 16.3867 220.713 15.2267 220.713 13.76C220.713 11.68 221.513 10.04 223.113 8.84C224.739 7.61333 226.873 7 229.513 7C231.299 7 232.859 7.29333 234.193 7.88C235.553 8.44 236.606 9.24 237.353 10.28C238.099 11.32 238.473 12.52 238.473 13.88C238.473 14.0133 238.419 14.1333 238.313 14.24C238.233 14.32 238.126 14.36 237.993 14.36H232.753C232.619 14.36 232.499 14.32 232.393 14.24C232.313 14.1333 232.273 14.0133 232.273 13.88C232.273 13.3733 232.033 12.96 231.553 12.64C231.073 12.32 230.419 12.16 229.592 12.16C228.846 12.16 228.233 12.2933 227.753 12.56C227.299 12.8 227.073 13.1467 227.073 13.6C227.073 14.0533 227.326 14.3867 227.833 14.6C228.339 14.7867 229.193 15 230.393 15.24C231.939 15.56 233.019 15.8133 233.633 16C235.286 16.5333 236.566 17.2533 237.473 18.16C238.406 19.0667 238.873 20.28 238.873 21.8C238.873 23.88 238.046 25.4933 236.393 26.64C234.766 27.76 232.566 28.32 229.793 28.32ZM260.99 2.48C259.55 2.48 258.523 2.81333 257.91 3.48C257.323 4.12 256.937 5.22667 256.75 6.8L256.67 7.6C256.643 7.62667 256.643 7.66667 256.67 7.72C256.697 7.74667 256.737 7.76 256.79 7.76H261.15C261.417 7.76 261.523 7.89333 261.47 8.16L261.27 9.96C261.217 10.2267 261.07 10.36 260.83 10.36H256.47C256.363 10.36 256.31 10.4133 256.31 10.52L254.19 27.6C254.19 27.7067 254.15 27.8 254.07 27.88C253.99 27.96 253.883 28 253.75 28H251.83C251.59 28 251.47 27.8667 251.47 27.6L253.59 10.52C253.59 10.4133 253.537 10.36 253.43 10.36H250.83C250.723 10.36 250.63 10.32 250.55 10.24C250.497 10.16 250.483 10.0667 250.51 9.96L250.71 8.16C250.737 8.05333 250.79 7.96 250.87 7.88C250.95 7.8 251.043 7.76 251.15 7.76H253.75C253.803 7.76 253.843 7.74667 253.87 7.72C253.923 7.69333 253.95 7.65333 253.95 7.6L254.07 6.64C254.257 5.01333 254.59 3.72 255.07 2.76C255.55 1.8 256.257 1.10666 257.19 0.679999C258.15 0.226665 259.43 -1.90735e-06 261.03 -1.90735e-06H262.15C262.283 -1.90735e-06 262.377 0.0399984 262.43 0.119999C262.51 0.199999 262.537 0.293332 262.51 0.399998L262.31 2.08C262.257 2.34667 262.11 2.48 261.87 2.48H260.99ZM269.463 28.32C267.596 28.32 266.05 27.8267 264.823 26.84C263.596 25.8533 262.836 24.4933 262.543 22.76C262.463 22.2 262.423 21.56 262.423 20.84C262.423 20.04 262.49 19.04 262.623 17.84C262.863 15.8133 263.236 14.1867 263.743 12.96C264.436 11.2533 265.516 9.90667 266.983 8.92C268.476 7.93333 270.17 7.44 272.063 7.44C273.903 7.44 275.423 7.93333 276.623 8.92C277.85 9.90667 278.61 11.24 278.903 12.92C279.01 13.4267 279.063 14.0533 279.063 14.8C279.063 15.3867 278.983 16.4 278.823 17.84C278.556 19.9733 278.183 21.6133 277.703 22.76C277.01 24.4933 275.93 25.8533 274.463 26.84C272.996 27.8267 271.33 28.32 269.463 28.32ZM269.783 25.84C271.01 25.84 272.103 25.4933 273.063 24.8C274.05 24.08 274.77 23.12 275.223 21.92C275.57 21.0133 275.85 19.6667 276.063 17.88C276.223 16.6267 276.303 15.5867 276.303 14.76C276.303 14.3333 276.29 14.0267 276.263 13.84C276.103 12.64 275.61 11.6933 274.783 11C273.983 10.28 272.956 9.92 271.703 9.92C270.45 9.92 269.343 10.28 268.383 11C267.423 11.6933 266.703 12.64 266.223 13.84C265.903 14.72 265.636 16.0667 265.423 17.88C265.263 19.08 265.183 20.1067 265.183 20.96C265.183 21.4133 265.196 21.7333 265.223 21.92C265.356 23.12 265.823 24.08 266.623 24.8C267.45 25.4933 268.503 25.84 269.783 25.84ZM293.635 7.56C294.488 7.56 295.208 7.73333 295.795 8.08C295.955 8.18667 296.008 8.36 295.955 8.6L295.275 10.56C295.142 10.8267 294.968 10.9067 294.755 10.8C294.328 10.6133 293.835 10.52 293.275 10.52L292.755 10.56C291.395 10.6133 290.222 11.1333 289.235 12.12C288.248 13.08 287.662 14.3067 287.475 15.8L285.995 27.6C285.995 27.7067 285.955 27.8 285.875 27.88C285.795 27.96 285.688 28 285.555 28H283.595C283.355 28 283.235 27.8667 283.235 27.6L285.635 8.16C285.688 7.89333 285.835 7.76 286.075 7.76H288.035C288.168 7.76 288.262 7.8 288.315 7.88C288.395 7.96 288.422 8.05333 288.395 8.16L288.075 10.6C288.075 10.68 288.088 10.7333 288.115 10.76C288.168 10.76 288.222 10.7333 288.275 10.68C288.915 9.69333 289.688 8.93333 290.595 8.4C291.502 7.84 292.515 7.56 293.635 7.56ZM312.824 27.92C312.691 27.92 312.571 27.88 312.464 27.8C312.384 27.6933 312.344 27.5733 312.344 27.44V17.96C312.344 17.8533 312.331 17.7733 312.304 17.72L304.104 0.559998C304.051 0.453331 304.024 0.373331 304.024 0.319999C304.024 0.106665 304.171 -1.90735e-06 304.464 -1.90735e-06H310.624C310.891 -1.90735e-06 311.078 0.119998 311.184 0.359998L315.544 10.48C315.624 10.64 315.704 10.64 315.784 10.48L320.184 0.359998C320.291 0.119998 320.478 -1.90735e-06 320.744 -1.90735e-06H326.944C327.131 -1.90735e-06 327.251 0.0533315 327.304 0.159998C327.384 0.239999 327.384 0.373332 327.304 0.559998L318.984 17.72C318.958 17.7733 318.944 17.8533 318.944 17.96V27.44C318.944 27.5733 318.891 27.6933 318.784 27.8C318.704 27.88 318.598 27.92 318.464 27.92H312.824ZM336.137 28.32C333.737 28.32 331.697 27.68 330.017 26.4C328.337 25.12 327.217 23.3867 326.657 21.2C326.337 20.1067 326.177 18.9067 326.177 17.6C326.177 16.1333 326.35 14.84 326.697 13.72C327.31 11.6133 328.443 9.97333 330.097 8.8C331.777 7.6 333.803 7 336.177 7C338.523 7 340.51 7.6 342.137 8.8C343.763 9.97333 344.897 11.6 345.537 13.68C345.91 14.88 346.097 16.16 346.097 17.52C346.097 18.7467 345.95 19.92 345.657 21.04C345.097 23.28 343.977 25.0533 342.297 26.36C340.617 27.6667 338.563 28.32 336.137 28.32ZM336.137 22.64C336.91 22.64 337.55 22.4 338.057 21.92C338.563 21.4133 338.937 20.7333 339.177 19.88C339.337 19.1867 339.417 18.4267 339.417 17.6C339.417 16.8 339.323 16.0267 339.137 15.28C338.923 14.4533 338.563 13.8133 338.057 13.36C337.55 12.9067 336.91 12.68 336.137 12.68C334.59 12.68 333.577 13.5467 333.097 15.28C332.937 15.92 332.857 16.6933 332.857 17.6C332.857 18.4267 332.937 19.1867 333.097 19.88C333.31 20.7333 333.67 21.4133 334.177 21.92C334.71 22.4 335.363 22.64 336.137 22.64ZM360.921 7.8C360.921 7.66667 360.961 7.56 361.041 7.48C361.148 7.37333 361.268 7.32 361.401 7.32H367.081C367.215 7.32 367.321 7.37333 367.401 7.48C367.508 7.56 367.561 7.66667 367.561 7.8V27.52C367.561 27.6533 367.508 27.7733 367.401 27.88C367.321 27.96 367.215 28 367.081 28H361.401C361.268 28 361.148 27.96 361.041 27.88C360.961 27.7733 360.921 27.6533 360.921 27.52V26.12C360.921 26.04 360.895 25.9867 360.841 25.96C360.788 25.9333 360.735 25.96 360.681 26.04C359.615 27.56 357.935 28.32 355.641 28.32C353.615 28.32 351.975 27.68 350.721 26.4C349.468 25.12 348.841 23.3333 348.841 21.04V7.8C348.841 7.66667 348.881 7.56 348.961 7.48C349.068 7.37333 349.188 7.32 349.321 7.32H355.001C355.135 7.32 355.241 7.37333 355.321 7.48C355.428 7.56 355.481 7.66667 355.481 7.8V19.52C355.481 20.4533 355.721 21.2 356.201 21.76C356.681 22.32 357.335 22.6 358.161 22.6C358.908 22.6 359.521 22.3733 360.001 21.92C360.508 21.4667 360.815 20.8667 360.921 20.12V7.8ZM383.674 12.16C383.674 12.2933 383.621 12.4133 383.514 12.52C383.434 12.6 383.328 12.64 383.194 12.64H379.554C379.421 12.64 379.354 12.7067 379.354 12.84V20.12C379.354 21.64 379.968 22.4 381.194 22.4H382.674C382.808 22.4 382.914 22.4533 382.994 22.56C383.101 22.64 383.154 22.7467 383.154 22.88V27.52C383.154 27.8133 382.994 27.9867 382.674 28.04C381.394 28.0933 380.461 28.12 379.874 28.12C377.554 28.12 375.834 27.76 374.714 27.04C373.594 26.2933 373.021 24.8933 372.994 22.84V12.84C372.994 12.7067 372.928 12.64 372.794 12.64H370.514C370.381 12.64 370.261 12.6 370.154 12.52C370.074 12.4133 370.034 12.2933 370.034 12.16V7.8C370.034 7.66667 370.074 7.56 370.154 7.48C370.261 7.37333 370.381 7.32 370.514 7.32H372.794C372.928 7.32 372.994 7.25333 372.994 7.12V2.28C372.994 2.14667 373.034 2.04 373.114 1.96C373.221 1.85333 373.341 1.8 373.474 1.8H378.874C379.008 1.8 379.114 1.85333 379.194 1.96C379.301 2.04 379.354 2.14667 379.354 2.28V7.12C379.354 7.25333 379.421 7.32 379.554 7.32H383.194C383.328 7.32 383.434 7.37333 383.514 7.48C383.621 7.56 383.674 7.66667 383.674 7.8V12.16ZM397.984 7C400.064 7 401.771 7.66667 403.104 9C404.437 10.3067 405.104 12.0933 405.104 14.36V27.52C405.104 27.6533 405.051 27.7733 404.944 27.88C404.864 27.96 404.757 28 404.624 28H398.944C398.811 28 398.691 27.96 398.584 27.88C398.504 27.7733 398.464 27.6533 398.464 27.52V15.8C398.464 14.8933 398.211 14.1467 397.704 13.56C397.197 12.9733 396.544 12.68 395.744 12.68C394.917 12.68 394.251 12.9733 393.744 13.56C393.237 14.12 392.984 14.8667 392.984 15.8V27.52C392.984 27.6533 392.931 27.7733 392.824 27.88C392.744 27.96 392.637 28 392.504 28H386.824C386.691 28 386.571 27.96 386.464 27.88C386.384 27.7733 386.344 27.6533 386.344 27.52V0.479999C386.344 0.346666 386.384 0.239999 386.464 0.159998C386.571 0.0533315 386.691 -1.90735e-06 386.824 -1.90735e-06H392.504C392.637 -1.90735e-06 392.744 0.0533315 392.824 0.159998C392.931 0.239999 392.984 0.346666 392.984 0.479999V9.28C392.984 9.38667 392.997 9.45333 393.024 9.48C393.077 9.48 393.131 9.44 393.184 9.36C394.197 7.78667 395.797 7 397.984 7Z" fill="#393733"/>
</svg>
